<svg width="26" height="26" viewBox="0 0 26 26" fill="none" xmlns="http://www.w3.org/2000/svg">
<path fill-rule="evenodd" clip-rule="evenodd" d="M10.2916 11.9167C8.4967 11.9167 7.04163 13.3718 7.04163 15.1667C7.04163 15.9991 7.35455 16.7584 7.86918 17.3334H3.79163C1.9967 17.3334 0.541626 18.7884 0.541626 20.5834C0.541626 22.3783 1.9967 23.8334 3.79163 23.8334H16.7916C18.5866 23.8334 20.0416 22.3783 20.0416 20.5834C20.0416 19.751 19.7287 18.9917 19.2141 18.4167H22.2083C24.0032 18.4167 25.4583 16.9616 25.4583 15.1667C25.4583 13.3718 24.0032 11.9167 22.2083 11.9167H10.2916Z" fill="#5EE3AB"/>
<path fill-rule="evenodd" clip-rule="evenodd" d="M1.625 6.5C1.625 4.70507 3.08007 3.25 4.875 3.25H17.875C19.6699 3.25 21.125 4.70507 21.125 6.5C21.125 8.29493 19.6699 9.75 17.875 9.75H4.875C3.08007 9.75 1.625 8.29493 1.625 6.5Z" fill="#5EE3AB"/>
</svg>
