<svg width="35" height="35" viewBox="0 0 35 35" fill="none" xmlns="http://www.w3.org/2000/svg">
<path fill-rule="evenodd" clip-rule="evenodd" d="M19.0261 20.9905C17.1143 20.4059 14.3466 19.114 14.3466 16.8064C14.3466 15.6081 14.889 14.4823 15.7925 13.5048C17.3789 15.3115 24.7368 14.4765 24.7368 10.0114C29.8069 10.0114 34.3957 12.4693 34.3957 16.2221C34.6462 19.2133 30.4518 20.9905 28.1723 20.9905C28.1723 20.9905 20.9378 21.5751 19.0261 20.9905Z" fill="#BEDCFF"/>
<path fill-rule="evenodd" clip-rule="evenodd" d="M19.1112 1.58417C16.0965 1.72563 13.7001 3.98183 13.7001 6.74436C13.7001 9.59814 16.2574 11.9116 19.4119 11.9116C21.631 11.9116 23.5545 10.7668 24.5002 9.09443C24.4746 13.5775 20.4495 17.2046 15.488 17.2046C10.5106 17.2046 6.47568 13.5543 6.47568 9.05154C6.47568 4.54875 10.5106 0.898506 15.488 0.898506C16.7768 0.898506 18.0025 1.14325 19.1112 1.58417Z" fill="#FFC700"/>
<path fill-rule="evenodd" clip-rule="evenodd" d="M14.4344 23.9545C16.1202 23.439 18.2776 21.7845 18.2776 19.7496C18.2776 16.4404 13.938 14.273 9.46715 14.273C4.99629 14.273 0.949799 16.4404 0.949799 19.7496C0.728969 22.3874 4.42763 23.9545 6.43766 23.9545C6.43766 23.9545 12.7487 24.47 14.4344 23.9545Z" fill="#BEDCFF"/>
<rect width="3.31275" height="5.85292" rx="1.65638" transform="matrix(0.961292 0.275532 -0.242981 0.970031 9.38663 25.2887)" fill="#2D5FF9" fill-opacity="0.74"/>
<rect width="3.31275" height="5.85292" rx="1.65638" transform="matrix(0.961292 0.275532 -0.242981 0.970031 20.732 25.2887)" fill="#2D5FF9" fill-opacity="0.74"/>
<rect width="3.31275" height="5.85292" rx="1.65638" transform="matrix(0.961292 0.275532 -0.242981 0.970031 15.0598 25.2887)" fill="#2D5FF9" fill-opacity="0.74"/>
</svg>
