<svg width="34" height="35" viewBox="0 0 34 35" fill="none" xmlns="http://www.w3.org/2000/svg">
<path fill-rule="evenodd" clip-rule="evenodd" d="M17.6278 22.7252C15.9904 22.0437 14.2569 20.8782 14.2569 19.0718C14.2569 15.4273 19.3847 12.4729 24.2716 12.4729C29.1584 12.4729 33.5814 14.8598 33.5814 18.5043C33.8228 21.4092 29.78 23.1351 27.5829 23.1351C27.5829 23.1351 26.1838 23.249 24.4734 23.3237C26.1784 24.1228 27.3327 25.4224 27.3327 27.0501C27.5172 29.2705 24.4272 30.5896 22.7479 30.5896C22.7479 30.5896 17.4182 31.0235 16.0098 30.5896C14.6014 30.1556 12.5222 28.763 12.5222 27.0501C12.5222 24.9122 14.8546 23.3405 17.6278 22.7252Z" fill="#BEDCFF"/>
<path fill-rule="evenodd" clip-rule="evenodd" d="M18.1293 5.46247C15.2235 5.59979 12.9137 7.79089 12.9137 10.4737C12.9137 13.2451 15.3785 15.4918 18.419 15.4918C20.5578 15.4918 22.4116 14.3802 23.3232 12.7563C23.2984 17.1097 19.4188 20.6319 14.6368 20.6319C9.8393 20.6319 5.9502 17.087 5.9502 12.7142C5.9502 8.34136 9.8393 4.79648 14.6368 4.79648C15.8791 4.79648 17.0606 5.0342 18.1293 5.46247Z" fill="#FFC700"/>
<path fill-rule="evenodd" clip-rule="evenodd" d="M12.9552 26.0682C14.5499 25.6074 16.8587 24.5891 16.8587 22.7703C16.8587 19.8123 12.4208 17.4143 8.19157 17.4143C3.96233 17.4143 0.134529 19.3517 0.134529 22.3097C-0.0743659 24.6675 3.4244 26.0682 5.3258 26.0682C5.3258 26.0682 11.3605 26.529 12.9552 26.0682Z" fill="#BEDCFF"/>
</svg>
