<svg width="26" height="26" viewBox="0 0 26 26" fill="none" xmlns="http://www.w3.org/2000/svg">
<path fill-rule="evenodd" clip-rule="evenodd" d="M11.0246 3.50357L15.0061 3.50354C18.4658 3.50351 21.1924 6.4503 20.9242 9.89957L20.7527 12.1061L24.8053 20.7866C24.977 21.1542 24.949 21.5841 24.731 21.9264C24.5131 22.2687 24.1354 22.476 23.7296 22.476L2.8283 22.476C2.43291 22.476 2.06346 22.2792 1.84293 21.951C1.6224 21.6228 1.57973 21.2064 1.72912 20.8403L5.28059 12.1372L5.10661 9.89958C4.83844 6.45036 7.56497 3.5036 11.0246 3.50357ZM10.9633 11.5941C11.965 11.0934 12.9955 11.0774 13.8375 11.2177C14.2542 11.2872 14.6013 11.3916 14.8382 11.4762C14.9556 11.5181 15.043 11.5541 15.0949 11.5766C15.1207 11.5878 15.1375 11.5955 15.1445 11.5988L15.1467 11.5998C16.0383 12.0378 17.1176 11.6748 17.5625 10.7849C18.0093 9.89109 18.0849 8.43102 16.7658 7.77419C16.7601 7.77139 16.7645 7.77354 16.7645 7.77354L16.7631 7.77285L16.7601 7.77139L16.7534 7.76806L16.7366 7.75987L16.69 7.7377C16.6532 7.72048 16.6049 7.69853 16.546 7.67299C16.4282 7.62198 16.2668 7.55622 16.0676 7.48508C15.6712 7.34354 15.1137 7.17658 14.4448 7.06512C13.1156 6.8436 11.2512 6.82766 9.35786 7.7741C7.98152 8.46201 8.08921 9.89097 8.536 10.7847C8.98278 11.6785 10.0695 12.0409 10.9633 11.5941Z" fill="#FF5BFB"/>
</svg>
