<svg width="34" height="35" viewBox="0 0 34 35" fill="none" xmlns="http://www.w3.org/2000/svg">
<path fill-rule="evenodd" clip-rule="evenodd" d="M24.7252 18.6557C26.5884 18.5681 28.2185 18.3992 28.2185 18.3992C30.3252 18.3992 34.2016 16.2935 33.9702 12.7492C33.9702 8.30263 29.7292 5.39035 25.0434 5.39035C24.4399 5.39035 23.8325 5.45015 23.2324 5.56383C21.7834 2.67349 18.7262 0.681271 15.1891 0.681271C10.2528 0.681271 6.25113 4.56152 6.25113 9.34805C6.25113 9.98921 6.32293 10.6141 6.45916 11.2156C3.14346 11.837 0.523042 13.8182 0.523042 16.5821C0.310749 19.2663 3.86642 20.861 5.79875 20.861C5.79875 20.861 10.0625 21.2257 12.4192 21.0429C15.4323 21.14 18.8498 21.0695 18.8498 21.0695C20.735 21.0695 23.7093 20.2355 24.7252 18.6557Z" fill="#BEDCFF"/>
<rect width="3.19922" height="5.93711" rx="1.59961" transform="matrix(0.956924 0.290338 -0.230275 0.973126 9.90227 23.0798)" fill="#2D5FF9" fill-opacity="0.74"/>
<rect width="3.19922" height="5.93711" rx="1.59961" transform="matrix(0.956924 0.290338 -0.230275 0.973126 21.5235 23.0798)" fill="#2D5FF9" fill-opacity="0.74"/>
<rect width="3.19922" height="5.93712" rx="1.59961" transform="matrix(0.956924 0.290338 -0.230275 0.973126 15.2145 25.4723)" fill="#2D5FF9" fill-opacity="0.74"/>
</svg>
