<svg width="35" height="35" viewBox="0 0 35 35" fill="none" xmlns="http://www.w3.org/2000/svg">
<rect x="20.7798" y="24.651" width="3.42426" height="9.13136" rx="1.71213" transform="rotate(15 20.7798 24.651)" fill="#2D5FF9" fill-opacity="0.74"/>
<rect x="14.874" y="24.651" width="3.42426" height="9.13136" rx="1.71213" transform="rotate(15 14.874 24.651)" fill="#2D5FF9" fill-opacity="0.74"/>
<rect x="9.16379" y="24.651" width="3.42426" height="9.13136" rx="1.71213" transform="rotate(15 9.16379 24.651)" fill="#2D5FF9" fill-opacity="0.74"/>
<path fill-rule="evenodd" clip-rule="evenodd" d="M30.512 16.66C32.4237 15.9634 34.3226 14.5147 34.155 12.4973C34.155 8.85355 29.7328 6.46706 24.8469 6.46706C24.6303 6.46706 24.4133 6.47287 24.1962 6.48428C22.8973 3.10483 19.3672 0.681271 15.2161 0.681271C9.96246 0.681271 5.70351 4.56326 5.70351 9.35193C5.70351 10.398 5.90674 11.4008 6.27918 12.3293C3.13725 12.9945 0.708328 14.8398 0.708328 17.3757C0.495519 19.9369 4.05985 21.4585 5.99688 21.4585C5.99688 21.4585 12.1447 21.959 13.7693 21.4585C14.2463 21.3115 14.7861 21.1123 15.3107 20.8541C15.9175 21.245 16.634 21.528 17.413 21.6978C19.7093 22.1982 25.456 22.0216 25.456 22.0216C27.4059 22.0216 30.775 20.4034 30.5608 17.3823C30.5608 17.1359 30.5442 16.8951 30.512 16.66Z" fill="#BEDCFF"/>
</svg>
