<svg width="35" height="35" viewBox="0 0 35 35" fill="none" xmlns="http://www.w3.org/2000/svg">
<rect width="3.1978" height="5.81223" rx="1.5989" transform="matrix(0.958829 0.283985 -0.235587 0.971853 9.42989 26.6066)" fill="#2D5FF9" fill-opacity="0.74"/>
<rect width="3.19781" height="5.81223" rx="1.5989" transform="matrix(0.958829 0.283985 -0.235587 0.971853 20.3547 26.6066)" fill="#2D5FF9" fill-opacity="0.74"/>
<rect width="3.1978" height="5.81223" rx="1.5989" transform="matrix(0.958829 0.283985 -0.235587 0.971853 14.8921 26.6066)" fill="#2D5FF9" fill-opacity="0.74"/>
<path fill-rule="evenodd" clip-rule="evenodd" d="M17.4154 21.1331C15.3495 20.4959 12.3586 19.0879 12.3586 16.5729C12.3586 12.4829 18.1077 9.16721 23.5866 9.16721C29.0655 9.16721 34.0243 11.846 34.0243 15.9361C34.2949 19.1962 29.7624 21.1331 27.2991 21.1331C27.2991 21.1331 19.4813 21.7702 17.4154 21.1331Z" fill="#BEDCFF"/>
<ellipse cx="15.3343" cy="8.06351" rx="7.87439" ry="7.38224" fill="#FFC700"/>
<path fill-rule="evenodd" clip-rule="evenodd" d="M16.3115 16.3522C16.2417 13.3387 12.3839 10.3531 8.4411 10.3531C4.16678 9.84733 0.578198 12.92 0.578198 15.9615C0.381667 18.3858 3.67335 19.826 5.4622 19.826C5.4622 19.826 6.45404 19.9088 7.71815 19.9706C8.01085 22.2841 11.1148 24.4932 14.7779 24.1078C18.3619 24.1078 21.8679 21.6726 21.8679 19.2367C21.8679 17.7389 19.9114 16.9003 18.56 16.5208C18.114 16.3956 17.2581 16.353 16.3115 16.3522Z" fill="#BEDCFF"/>
</svg>
