<svg width="35" height="35" viewBox="0 0 35 35" fill="none" xmlns="http://www.w3.org/2000/svg">
<path fill-rule="evenodd" clip-rule="evenodd" d="M16.6441 19.4019C15.836 20.0176 14.7783 20.4338 13.9228 20.6878C12.3022 21.1689 6.16928 20.6878 6.16928 20.6878C4.23696 20.6878 0.681286 19.2252 0.893578 16.7635C0.893578 14.0991 3.78888 12.2278 7.34361 11.7643C6.87899 10.8025 6.62167 9.74278 6.62167 8.62963C6.62167 4.23987 10.6233 0.681271 15.5597 0.681271C19.0968 0.681271 22.154 2.50839 23.603 5.15921C24.2031 5.05495 24.8104 5.00012 25.4139 5.00012C30.0997 5.00012 34.3407 7.67098 34.3407 11.749C34.5722 14.9995 30.6957 16.9306 28.589 16.9306C28.589 16.9306 26.9588 17.0855 25.0956 17.1658C24.0796 18.6146 21.1054 19.3794 19.2203 19.3794C19.2203 19.3794 18.1329 19.4 16.6441 19.4019Z" fill="#BEDCFF"/>
<path fill-rule="evenodd" clip-rule="evenodd" d="M27.3447 19.2546L29.0817 13.4771H23.8707L21.5547 21.8223H24.4497L22.7127 28.2416H24.4497L31.3977 19.2546H27.3447Z" fill="#FFC700"/>
<rect width="3.40774" height="8.79953" rx="1.70387" transform="matrix(0.968252 0.249978 -0.267927 0.963439 15.7307 22.6235)" fill="#2D5FF9" fill-opacity="0.74"/>
<rect width="3.40774" height="8.79953" rx="1.70387" transform="matrix(0.968252 0.249978 -0.267927 0.963439 8.93492 22.6235)" fill="#2D5FF9" fill-opacity="0.74"/>
</svg>
